<?xml version="1.0" standalone="no"?>
<!DOCTYPE svg PUBLIC "-//W3C//DTD SVG 20010904//EN"
 "http://www.w3.org/TR/2001/REC-SVG-20010904/DTD/svg10.dtd">
<svg version="1.0" xmlns="http://www.w3.org/2000/svg"
 width="264.000000pt" height="264.000000pt" viewBox="0 0 264.000000 264.000000"
 preserveAspectRatio="xMidYMid meet">
<metadata>
Created by potrace 1.11, written by Peter Selinger 2001-2013
</metadata>
<g transform="translate(0.000000,264.000000) scale(0.100000,-0.100000)"
fill="#000000" stroke="none">
<path d="M957 2278 c-13 -10 -17 -33 -19 -107 l-3 -93 -90 -33 c-157 -57 -203
-77 -224 -97 -20 -18 -21 -30 -21 -198 l0 -180 -139 0 c-114 0 -143 -3 -155
-16 -14 -13 -16 -56 -16 -310 0 -185 4 -303 10 -315 12 -21 50 -25 68 -7 9 9
12 86 12 285 l0 273 110 0 110 0 0 -240 0 -240 -41 0 c-68 0 -92 -24 -73 -74
5 -12 20 -16 63 -16 l57 0 22 -52 c50 -120 161 -217 252 -221 31 -1 40 -5 40
-19 0 -10 -7 -18 -17 -18 -17 -1 -17 -1 -1 -14 14 -10 18 -28 18 -83 0 -40 5
-74 12 -81 16 -16 68 -15 68 1 0 8 -10 13 -22 13 -22 -1 -23 4 -26 72 -3 67
-1 72 18 72 11 0 20 5 20 10 0 6 -9 10 -20 10 -14 0 -20 7 -20 23 0 21 13 29
113 65 61 22 121 42 132 44 17 3 20 12 23 64 l3 61 -91 6 c-57 4 -107 14 -133
26 l-42 19 192 1 191 1 7 -41 c10 -56 27 -95 66 -149 35 -48 41 -95 13 -116
-18 -14 -18 -24 1 -24 11 0 15 -18 17 -83 l3 -82 34 0 c19 0 36 5 38 12 3 8
-6 11 -24 10 l-28 -2 -3 73 c-3 66 -1 72 17 72 11 0 23 5 26 10 4 6 -5 10 -19
10 -22 0 -26 4 -26 30 0 29 13 40 24 21 13 -21 73 -20 144 3 l22 7 0 -125 0
-126 75 0 c67 0 79 3 100 25 14 13 25 34 25 45 0 11 -11 32 -25 45 -13 14 -20
25 -14 25 14 0 31 49 24 71 -12 37 -35 49 -93 49 l-57 1 112 44 c199 78 223
95 223 156 l0 39 140 0 c127 0 140 2 150 19 6 13 10 168 10 435 0 364 -2 417
-16 430 -12 13 -41 16 -148 16 l-133 0 -6 60 c-9 107 -119 240 -197 240 -11 0
-47 -13 -80 -30 -33 -16 -62 -30 -65 -30 -3 0 -5 49 -5 110 0 98 -2 110 -19
120 -30 16 -672 14 -694 -2z m623 -149 l0 -71 -30 25 c-51 44 -60 42 -180 -25
l-111 -63 3 -45 c3 -38 7 -45 25 -48 52 -8 53 -13 53 -474 l0 -428 -155 0
-155 0 2 285 3 286 132 62 132 62 1 48 c0 46 -1 47 -30 47 -47 0 -64 28 -100
159 -40 146 -58 175 -107 168 l-33 -6 0 45 0 44 275 0 275 0 0 -71z m127 -296
c25 -38 25 -203 0 -250 -33 -62 -37 -50 -37 116 0 98 4 161 10 161 5 0 18 -12
27 -27z m-768 -205 c1 -55 0 -58 -24 -58 l-25 0 1 128 1 127 23 -70 c14 -40
24 -95 24 -127z m1291 -268 l0 -360 -104 0 -104 0 -4 153 c-4 168 -8 184 -76
259 -34 38 -35 40 -17 51 11 6 37 27 58 47 l37 38 0 86 0 86 105 0 105 0 0
-360z m-1290 -120 c0 -228 -1 -240 -19 -240 -11 0 -21 9 -25 23 -3 12 -6 120
-6 240 l0 217 25 0 25 0 0 -240z m770 -10 c6 -12 14 -68 17 -125 l6 -105 -31
0 -32 0 0 125 c0 103 3 125 15 125 8 0 19 -9 25 -20z m84 -596 c39 -39 1 -84
-71 -84 l-43 0 0 50 0 50 49 0 c32 0 55 -6 65 -16z m14 -116 c19 -19 14 -55
-10 -72 -13 -9 -43 -16 -70 -16 l-48 0 0 50 0 50 58 0 c32 0 63 -5 70 -12z"/>
<path d="M262 645 c-48 -41 -58 -122 -22 -180 23 -38 58 -55 108 -55 43 0 100
39 88 59 -6 9 -14 7 -31 -9 -55 -52 -133 -27 -156 50 -29 95 71 178 144 120
30 -24 37 -25 37 -5 0 21 -52 45 -99 45 -28 0 -48 -8 -69 -25z"/>
<path d="M535 598 c-41 -11 -65 -45 -65 -94 0 -85 91 -126 157 -70 23 20 28
32 28 69 0 73 -51 114 -120 95z m75 -40 c26 -28 26 -78 0 -106 -43 -45 -114
-13 -114 51 0 69 69 103 114 55z"/>
<path d="M785 602 c-10 -2 -29 -11 -42 -19 -21 -14 -23 -14 -23 1 0 9 -4 16
-10 16 -6 0 -10 -38 -10 -95 0 -78 3 -95 15 -95 12 0 15 14 15 70 0 63 2 71
24 86 14 8 35 14 48 12 26 -3 35 -31 37 -115 2 -85 21 -62 21 25 0 97 -19 126
-75 114z"/>
<path d="M1093 602 c-12 -2 -34 -17 -48 -33 -33 -40 -33 -88 1 -128 21 -26 33
-31 68 -31 30 0 48 6 61 20 23 25 12 39 -13 17 -38 -35 -112 -10 -112 36 0 15
12 17 80 17 72 0 80 2 80 19 0 11 -11 33 -25 49 -25 30 -52 40 -92 34z m69
-39 c35 -32 23 -43 -47 -43 -69 0 -79 8 -48 42 20 22 70 23 95 1z"/>
<path d="M1290 603 c-28 -10 -50 -36 -50 -59 0 -27 8 -33 69 -49 39 -9 46 -15
46 -36 0 -21 -5 -24 -37 -27 -20 -2 -46 2 -57 7 -12 7 -22 7 -26 2 -9 -15 29
-31 74 -31 42 0 81 26 81 53 0 21 -30 42 -77 56 -32 9 -43 17 -43 31 0 27 32
42 65 30 33 -12 45 -13 45 -1 0 9 -19 17 -60 26 -8 2 -22 1 -30 -2z"/>
<path d="M1933 598 c-18 -4 -35 -13 -38 -18 -8 -13 7 -13 41 0 32 13 74 -10
74 -39 0 -16 -7 -19 -43 -19 -74 2 -108 -33 -83 -84 13 -27 71 -36 108 -17 16
9 23 9 26 0 2 -6 9 -11 16 -11 15 0 11 109 -6 152 -12 33 -52 48 -95 36z m55
-94 c28 -8 30 -49 3 -64 -47 -25 -99 -1 -86 39 8 26 41 36 83 25z"/>
<path d="M2130 600 c-14 -3 -31 -18 -39 -32 -19 -34 -4 -54 53 -69 56 -15 68
-26 55 -50 -11 -21 -58 -26 -91 -8 -27 14 -38 1 -14 -17 29 -21 99 -18 120 5
33 36 17 64 -46 86 -62 21 -76 45 -37 65 16 9 28 9 50 -1 27 -11 50 -7 37 6
-12 12 -65 21 -88 15z"/>
<path d="M2333 602 c-12 -2 -34 -17 -48 -33 -33 -40 -33 -88 1 -128 21 -26 33
-31 68 -31 30 0 48 6 61 20 23 25 12 39 -13 17 -38 -35 -112 -10 -112 36 0 15
12 17 80 17 72 0 80 2 80 19 0 11 -11 33 -25 49 -25 30 -52 40 -92 34z m69
-39 c35 -32 23 -43 -47 -43 -50 0 -65 3 -65 14 0 42 76 62 112 29z"/>
</g>
</svg>
